<?xml version="1.0" encoding="utf-8"?>
<!-- Generator: Adobe Illustrator 14.0.0, SVG Export Plug-In . SVG Version: 6.00 Build 43363)  -->
<!DOCTYPE svg PUBLIC "-//W3C//DTD SVG 1.1//EN" "http://www.w3.org/Graphics/SVG/1.1/DTD/svg11.dtd">
<svg version="1.1" id="Layer_1" xmlns="http://www.w3.org/2000/svg" xmlns:xlink="http://www.w3.org/1999/xlink" x="0px" y="0px"
	 width="538.933px" height="266.351px" viewBox="-1.399 0 538.933 266.351" enable-background="new -1.399 0 538.933 266.351"
	 xml:space="preserve">
<g>
	<line fill="none" x1="323.554" y1="93.692" x2="351.978" y2="70.284"/>
	<line fill="none" stroke="#EF5AA0" x1="323.554" y1="93.692" x2="351.978" y2="70.284"/>
	<g>
		<g>
			<g>
				<g>
					<g>
						<defs>
							<rect id="SVGID_1_" x="-0.399" y="-1.42" width="547.635" height="267.771"/>
						</defs>
						<clipPath id="SVGID_2_">
							<use xlink:href="#SVGID_1_"  overflow="visible"/>
						</clipPath>
						<path clip-path="url(#SVGID_2_)" fill="none" stroke="#EF5AA0" d="M373.023,62.239c0,6.583-5.345,11.942-11.937,11.942
							c-6.632,0-11.981-5.359-11.981-11.942c0-6.628,5.346-11.974,11.981-11.974C367.679,50.267,373.023,55.611,373.023,62.239z"/>
					</g>
				</g>
			</g>
		</g>
	</g>
	<line fill="none" x1="209.996" y1="97.563" x2="149.47" y2="35.414"/>
	<line fill="none" stroke="#EF5AA0" x1="209.996" y1="97.563" x2="149.47" y2="35.414"/>
	<g>
		<g>
			<g>
				<g>
					<g>
						<defs>
							<rect id="SVGID_3_" x="-0.399" y="-1.42" width="547.635" height="267.771"/>
						</defs>
						<clipPath id="SVGID_4_">
							<use xlink:href="#SVGID_3_"  overflow="visible"/>
						</clipPath>
						<path clip-path="url(#SVGID_4_)" fill="none" stroke="#EF5AA0" d="M135.626,1.852c10.57-0.888,19.879,7.023,20.75,17.569
							c0.895,10.601-6.969,19.933-17.558,20.791c-10.61,0.901-19.94-6.981-20.803-17.592
							C117.132,12.045,125.015,2.756,135.626,1.852z"/>
					</g>
				</g>
			</g>
		</g>
	</g>
	<line fill="none" x1="224.072" y1="231.993" x2="210.071" y2="253.352"/>
	<line fill="none" stroke="#EF5AA0" x1="224.072" y1="231.993" x2="210.071" y2="253.352"/>
	<g>
		<g>
			<g>
				<g>
					<g>
						<defs>
							<rect id="SVGID_5_" x="-0.399" y="-1.42" width="547.635" height="267.771"/>
						</defs>
						<clipPath id="SVGID_6_">
							<use xlink:href="#SVGID_5_"  overflow="visible"/>
						</clipPath>
						<path clip-path="url(#SVGID_6_)" fill="#EF5AA0" d="M202.111,259.309c-0.935-2.997,0.728-6.158,3.724-7.082
							c2.99-0.955,6.166,0.724,7.096,3.72c0.934,2.996-0.729,6.157-3.73,7.095C206.225,263.965,203.045,262.291,202.111,259.309"/>
					</g>
				</g>
			</g>
		</g>
		<g>
			<g>
				<g>
					<g>
						<defs>
							<rect id="SVGID_7_" x="-0.399" y="-1.42" width="547.635" height="267.771"/>
						</defs>
						<clipPath id="SVGID_8_">
							<use xlink:href="#SVGID_7_"  overflow="visible"/>
						</clipPath>
						<path clip-path="url(#SVGID_8_)" fill="none" stroke="#EF5AA0" d="M202.111,259.309c-0.935-2.997,0.728-6.158,3.724-7.082
							c2.99-0.955,6.166,0.724,7.096,3.72c0.934,2.996-0.729,6.157-3.73,7.095C206.225,263.965,203.045,262.291,202.111,259.309z"/>
					</g>
				</g>
			</g>
		</g>
	</g>
	<g>
		<g>
			<g>
				<g>
					<g>
						<defs>
							<path id="SVGID_9_" d="M235.553,204.509c-16.38-9.344-24.545-23.14-24.545-41.342c0-0.979,0.002-1.964,0.018-2.948
								c0.032-2.573,0.154-5.146,0.557-7.688c0.508-3.188,1.329-6.307,2.466-9.322c2.146-5.702,5.739-12.707,10.503-16.689
								c10.809-9.039,22.165-13.548,34.065-13.548h2.228c10.484,0,20.588,3.404,30.362,10.258
								c11.979,9.952,17.967,22.683,17.967,38.058c0,11.323-3.407,21.828-10.236,31.529c-10.647,11.691-23.363,17.598-38.097,17.598
								h-2.228C251.411,210.412,243.712,208.417,235.553,204.509 M309.508,103.77v26.391
								c-11.191-17.313-28.424-26.009-51.608-26.009c-2.635,0-7.629,0.761-15.023,2.208c-14.795,4.314-25.997,13.011-33.728,26.01
								c-4.829,10.443-7.298,20.118-7.298,28.92c0,5.66,1.117,12.263,3.307,19.835c3.992,11.892,10.865,21.186,20.519,27.815
								c9.502,6.827,21.47,10.219,35.88,10.219h3.318c3.204,0,7.459-0.716,12.791-2.201c14.463-4.74,25.088-12.581,31.842-23.418
								v25.619h8.087V103.77H309.508L309.508,103.77z"/>
						</defs>
						<clipPath id="SVGID_10_">
							<use xlink:href="#SVGID_9_"  overflow="visible"/>
						</clipPath>
						
							<linearGradient id="SVGID_11_" gradientUnits="userSpaceOnUse" x1="-587.5996" y1="319.9944" x2="-586.4082" y2="319.9944" gradientTransform="matrix(97.1333 0 0 -97.1333 57277.3828 31243.6484)">
							<stop  offset="0" stop-color="#36C1F1"/>
							<stop  offset="0.5" stop-color="#179EDA"/>
							<stop  offset="1" stop-color="#1E8CCC"/>
						</linearGradient>
						<rect x="201.852" y="103.77" clip-path="url(#SVGID_10_)" fill="url(#SVGID_11_)" width="115.743" height="115.389"/>
					</g>
				</g>
			</g>
		</g>
	</g>
	<g>
		<g>
			<g>
				<g>
					<g>
						<defs>
							<rect id="SVGID_12_" x="-0.399" y="-1.42" width="547.635" height="267.771"/>
						</defs>
						<clipPath id="SVGID_13_">
							<use xlink:href="#SVGID_12_"  overflow="visible"/>
						</clipPath>
						<path clip-path="url(#SVGID_13_)" fill="#EF5AA0" d="M127.922,26.922c-3.262-5.128-1.746-11.902,3.389-15.143
							c5.123-3.287,11.908-1.762,15.17,3.363c3.248,5.142,1.75,11.906-3.397,15.171C137.983,33.573,131.18,32.037,127.922,26.922"/>
					</g>
				</g>
			</g>
		</g>
		<g>
			<g>
				<g>
					<g>
						<defs>
							<rect id="SVGID_14_" x="-0.399" y="-1.42" width="547.635" height="267.771"/>
						</defs>
						<clipPath id="SVGID_15_">
							<use xlink:href="#SVGID_14_"  overflow="visible"/>
						</clipPath>
						<path clip-path="url(#SVGID_15_)" fill="none" stroke="#EF5AA0" d="M127.922,26.922c-3.262-5.128-1.746-11.902,3.389-15.143
							c5.123-3.287,11.908-1.762,15.17,3.363c3.248,5.142,1.75,11.906-3.397,15.171C137.983,33.573,131.18,32.037,127.922,26.922z"
							/>
					</g>
				</g>
			</g>
		</g>
		<g>
			<g>
				<g>
					<g>
						<defs>
							<rect id="SVGID_16_" x="-0.399" y="-1.42" width="547.635" height="267.771"/>
						</defs>
						<clipPath id="SVGID_17_">
							<use xlink:href="#SVGID_16_"  overflow="visible"/>
						</clipPath>
						<path clip-path="url(#SVGID_17_)" d="M29.945,93.984h53.454v5.842H34.738c-8.294,0-13.888,0.876-16.794,2.657
							c-8.131,4.459-12.229,11.753-12.229,21.819c0,9.597,4.435,16.886,13.321,21.812c3.459,1.25,6.385,1.896,8.802,1.896h36.425
							c3.562,0,8.124,1.835,13.589,5.594c7.088,6.447,10.617,14.577,10.617,24.47c0,11.889-5.071,20.84-15.156,26.881
							c-4.512,2.1-8.391,3.158-11.717,3.158H3.854v-5.578H52.58c8.492,0,13.968-0.683,16.489-2.096
							c8.853-4.312,13.289-12.039,13.289-23.178c0-3.477-1.325-7.87-3.998-13.02c-2.654-4.413-6.994-7.604-13.031-9.587
							l-5.058-0.847H24.629c-6.05,0-11.973-2.968-17.868-9.014c-4.767-6.281-7.16-12.776-7.16-19.428v-1.316
							c0-10.176,4.069-18.486,12.226-25.01C17.417,95.672,23.471,93.984,29.945,93.984"/>
					</g>
				</g>
			</g>
		</g>
		<g>
			<g>
				<g>
					<g>
						<defs>
							<rect id="SVGID_18_" x="-0.399" y="-1.42" width="547.635" height="267.771"/>
						</defs>
						<clipPath id="SVGID_19_">
							<use xlink:href="#SVGID_18_"  overflow="visible"/>
						</clipPath>
						<path clip-path="url(#SVGID_19_)" fill="#120C15" d="M102.864,124.054h36.445v6.115h-36.445v34.322
							c0.072,4.867,1.309,10.259,3.727,16.233c1.372,3.67,5.191,8.365,11.411,14.105c7.725,4.82,15.353,7.176,22.899,7.176h0.845
							v6.111h-0.311c-13.101,0-24.308-4.697-33.543-14.072c-7.452-8.675-11.152-19.425-11.152-32.209V93.693h6.124V124.054
							L102.864,124.054z"/>
					</g>
				</g>
			</g>
		</g>
		<g>
			<g>
				<g>
					<g>
						<defs>
							<rect id="SVGID_20_" x="-0.399" y="-1.42" width="547.635" height="267.771"/>
						</defs>
						<clipPath id="SVGID_21_">
							<use xlink:href="#SVGID_20_"  overflow="visible"/>
						</clipPath>
						<path clip-path="url(#SVGID_21_)" fill="#120C15" d="M155.545,136.006c6.453-7.601,14.209-11.429,23.153-11.429h0.546v5.833
							h-0.298c-8.531,0-15.1,3.49-19.684,10.431c-2.303,3.123-3.452,8.346-3.452,15.714v51.562h-6.12v-83.812h5.854V136.006
							L155.545,136.006z"/>
					</g>
				</g>
			</g>
		</g>
	</g>
	<g enable-background="new    ">
		<path fill="#120C15" d="M445.505,147.6c0.193,1.996,0.695,3.445,1.509,4.347c0.901,1.301,2.291,2.247,4.17,2.839l2.218,0.354
			l3.016-0.532c-1.626-1.671-2.485-2.972-2.574-3.902c-0.413-0.872-0.621-2.615-0.621-5.234v-2.218h2.04v1.952
			c0,3.459,0.474,5.678,1.42,6.654c0.961,1.063,1.552,1.624,1.772,1.686c2.189-1.287,3.283-3.947,3.283-7.985v-2.307h1.862v3.814
			c0,3.18-1.063,5.692-3.193,7.54c1.242,0.297,2.188,0.444,2.838,0.444h0.09l0.089,0.088l0.088-0.088h0.354
			c1.804,0,3.549-0.71,5.234-2.13c1.478-1.641,2.247-3.207,2.306-4.701V129.06h1.953v18.542c0,3.104-1.33,5.647-3.993,7.628
			c-1.789,1.183-3.562,1.773-5.322,1.773h-1.863c-0.604,0-1.849-0.355-3.726-1.064h-0.177c-1.684,0.709-2.957,1.064-3.813,1.064
			h-1.686c-2.749,0-5.235-1.271-7.452-3.814c-1.301-1.893-1.95-3.992-1.95-6.297V129.06h2.129V147.6L445.505,147.6z"/>
		<path fill="#120C15" d="M489.771,129.15c4.083,0,7.6,1.361,10.558,4.08l1.418,1.773c1.536,2.366,2.308,4.968,2.308,7.807v0.622
			h-25.815v0.443c0,2.381,0.858,4.716,2.573,7.007c1.921,1.849,3.637,2.972,5.145,3.371c1.508,0.473,2.779,0.71,3.813,0.71
			c5.19,0,8.916-2.218,11.178-6.653c0.354-0.783,0.622-1.73,0.799-2.839h2.128v0.176c0,1.362-0.709,3.284-2.128,5.768
			c-1.642,2.145-3.771,3.741-6.387,4.79c-1.907,0.532-3.415,0.799-4.525,0.799h-1.417c-2.663,0-5.322-0.857-7.985-2.572
			c-2.188-1.98-3.488-3.517-3.902-4.613c-1.006-2.216-1.509-4.464-1.509-6.74c0-2.262,0.592-4.656,1.774-7.186
			c1.554-2.631,3.888-4.554,7.009-5.767C486.414,129.652,488.07,129.325,489.771,129.15z M478.416,141.39h23.418v-0.088
			c-0.341-2.204-0.96-3.888-1.861-5.057c-1.316-1.877-3.031-3.207-5.145-3.991c-1.746-0.621-3.312-0.946-4.701-0.976
			c-1.167,0-2.854,0.324-5.058,0.976c-1.434,0.65-2.854,1.685-4.257,3.104C479.214,137.518,478.416,139.528,478.416,141.39z"/>
		<path fill="#120C15" d="M508.755,135.447h0.088c1.419-2.556,3.845-4.421,7.273-5.588c1.449-0.472,3.046-0.709,4.791-0.709h0.621
			c2.736,0,5.604,1.093,8.605,3.281c1.787,1.641,3.001,3.327,3.637,5.056c0.651,1.45,0.977,3.343,0.977,5.679
			c0,2.647-0.504,4.836-1.508,6.564c-1.243,2.764-3.552,4.864-6.921,6.299c-1.746,0.65-3.697,0.975-5.855,0.975h-0.62
			c-3.119,0-6.166-1.271-9.137-3.814c-0.771-0.827-1.419-1.625-1.951-2.396v6.21h-2.042v-38.145h2.042V135.447L508.755,135.447z
			 M508.933,142.454v0.443l-0.089,0.09l0.089,0.089v0.355c0,5.248,2.66,8.885,7.983,10.91c1.285,0.354,2.587,0.53,3.902,0.53
			c4.464,0,7.924-1.892,10.38-5.677c1.004-2.129,1.508-4.169,1.508-6.121c0-2.898-0.947-5.558-2.84-7.983
			c-1.848-1.686-3.385-2.69-4.613-3.016c-1.566-0.532-3.045-0.799-4.435-0.799c-3.061,0-5.87,1.036-8.427,3.104
			c0,0.119-0.268,0.415-0.799,0.886C509.818,137.531,508.933,139.927,508.933,142.454z"/>
	</g>
	<g>
		<g>
			<g>
				<g>
					<g>
						<defs>
							<rect id="SVGID_22_" x="-0.399" y="-1.42" width="547.635" height="267.771"/>
						</defs>
						<clipPath id="SVGID_23_">
							<use xlink:href="#SVGID_22_"  overflow="visible"/>
						</clipPath>
						<path clip-path="url(#SVGID_23_)" d="M419.698,130.978c5.688,5.437,8.519,11.538,8.519,18.372
							c0,7.31-3.116,13.543-9.343,18.653c-4.5,2.781-9.164,4.157-13.977,3.996h-34.871l-4.988,1.047
							c-6.914,3.149-10.394,8.106-10.394,14.905l0.522,4.246c2.396,7.97,8.601,11.98,18.661,11.98h51.407v5.875h-52.774l-6.04-0.272
							c-4.676-1.159-8.514-3.138-11.495-5.892c-3.69-4.171-5.783-8.399-6.347-12.786v-5.57l0.569-3.444
							c0.817-3.641,3.102-7.182,6.829-10.635c3.619-3.003,7.857-4.831,12.664-5.321h38.16c2.508-0.187,5.468-1.428,8.757-3.717
							c4.245-3.749,6.371-8.007,6.371-12.789c0-1.797-0.413-3.82-1.148-6.133c-2.573-7.446-8.646-11.18-18.105-11.18h-49.407V126.2
							h48.062C409.312,126.205,415.446,127.815,419.698,130.978"/>
					</g>
				</g>
			</g>
		</g>
	</g>
</g>
</svg>
